<?xml version="1.0" encoding="UTF-8"?>
<svg id="_レイヤー_2" data-name="レイヤー 2" xmlns="http://www.w3.org/2000/svg" viewBox="0 0 385 496.44">
  <defs>
    <style>
      .cls-1 {
        fill: #c0392b;
      }
    </style>
  </defs>
  <g id="_レイヤー_1-2" data-name="レイヤー 1">
    <g>
      <path class="cls-1" d="M74.54,130.25c.02,3.57-2.7,6.3-6.24,6.26-3.42-.03-6.16-2.75-6.2-6.16-.04-3.34,2.74-6.22,6.09-6.3,3.49-.08,6.33,2.69,6.35,6.19Z"/>
      <path class="cls-1" d="M124.21,130.2c.04,3.58-2.65,6.32-6.19,6.32-3.43,0-6.18-2.7-6.25-6.1-.07-3.43,2.83-6.38,6.25-6.36,3.43.02,6.15,2.73,6.19,6.14Z"/>
      <path class="cls-1" d="M173.88,130.3c0,3.48-2.64,6.17-6.07,6.22-3.52.04-6.36-2.72-6.37-6.2,0-3.34,2.8-6.21,6.14-6.26,3.5-.05,6.3,2.73,6.3,6.25Z"/>
      <path class="cls-1" d="M223.54,130.3c0,3.48-2.64,6.17-6.08,6.21-3.52.04-6.36-2.72-6.37-6.21,0-3.34,2.81-6.2,6.14-6.25,3.5-.05,6.3,2.73,6.3,6.25Z"/>
      <path class="cls-1" d="M273.21,130.22c.03,3.57-2.67,6.31-6.21,6.29-3.42-.02-6.17-2.72-6.22-6.13-.05-3.43,2.86-6.37,6.28-6.33,3.43.04,6.13,2.75,6.16,6.17Z"/>
      <path class="cls-1" d="M322.88,130.22c.03,3.58-2.67,6.31-6.21,6.29-3.42-.02-6.17-2.72-6.23-6.13-.06-3.43,2.86-6.37,6.28-6.33,3.43.04,6.13,2.75,6.16,6.17Z"/>
      <path class="cls-1" d="M74.54,179.99c-.02,3.47-2.68,6.15-6.12,6.16-3.52.02-6.34-2.77-6.32-6.26.02-3.34,2.86-6.19,6.19-6.21,3.5-.02,6.27,2.77,6.25,6.3Z"/>
      <path class="cls-1" d="M124.21,179.85c.03,3.58-2.66,6.32-6.2,6.31-3.43-.01-6.18-2.7-6.24-6.11-.07-3.43,2.84-6.37,6.26-6.35,3.43.03,6.14,2.73,6.18,6.15Z"/>
      <path class="cls-1" d="M173.88,179.88c.02,3.57-2.69,6.3-6.23,6.27-3.42-.03-6.16-2.74-6.21-6.15-.04-3.43,2.88-6.36,6.3-6.31,3.43.05,6.12,2.76,6.14,6.19Z"/>
      <path class="cls-1" d="M74.54,477.84c-.02,3.47-2.68,6.14-6.12,6.16-3.52.02-6.34-2.77-6.32-6.26.02-3.34,2.86-6.19,6.19-6.21,3.5-.02,6.27,2.77,6.25,6.3Z"/>
      <path class="cls-1" d="M223.54,180.04c-.04,3.46-2.72,6.11-6.18,6.11-3.51,0-6.32-2.83-6.26-6.31.05-3.35,2.91-6.17,6.24-6.15,3.51.02,6.24,2.81,6.2,6.35Z"/>
      <path class="cls-1" d="M24.88,477.69c.04,3.58-2.65,6.32-6.19,6.32-3.43,0-6.18-2.7-6.25-6.1-.07-3.43,2.83-6.38,6.25-6.36,3.43.02,6.15,2.73,6.19,6.14Z"/>
      <path class="cls-1" d="M273.21,179.86c.03,3.58-2.67,6.31-6.21,6.29-3.42-.02-6.17-2.72-6.23-6.13-.06-3.43,2.86-6.37,6.27-6.33,3.43.04,6.14,2.74,6.16,6.17Z"/>
      <path class="cls-1" d="M273.21,80.66c0,3.48-2.64,6.17-6.08,6.21-3.52.04-6.35-2.73-6.36-6.21,0-3.34,2.82-6.2,6.15-6.25,3.5-.05,6.3,2.73,6.29,6.25Z"/>
      <path class="cls-1" d="M223.54,80.55c.04,3.58-2.65,6.32-6.19,6.32-3.43,0-6.18-2.7-6.25-6.1-.07-3.43,2.83-6.38,6.25-6.36,3.43.02,6.15,2.73,6.19,6.14Z"/>
      <path class="cls-1" d="M74.54,80.68c0,3.47-2.65,6.16-6.09,6.19-3.52.03-6.35-2.74-6.35-6.23,0-3.34,2.83-6.2,6.16-6.23,3.5-.04,6.29,2.74,6.28,6.27Z"/>
      <path class="cls-1" d="M124.21,428.07c.03,3.58-2.67,6.31-6.21,6.29-3.42-.02-6.17-2.72-6.23-6.13-.06-3.43,2.85-6.37,6.27-6.33,3.43.03,6.14,2.74,6.16,6.17Z"/>
      <path class="cls-1" d="M74.54,428.08c.02,3.57-2.68,6.3-6.23,6.28-3.42-.02-6.17-2.74-6.21-6.14-.05-3.43,2.87-6.36,6.29-6.32,3.43.05,6.13,2.76,6.15,6.18Z"/>
      <path class="cls-1" d="M124.21,229.65c-.03,3.47-2.69,6.14-6.14,6.15-3.52.01-6.33-2.79-6.3-6.27.03-3.35,2.87-6.18,6.21-6.19,3.51,0,6.26,2.78,6.23,6.31Z"/>
      <path class="cls-1" d="M173.88,229.59c0,3.48-2.65,6.17-6.09,6.2-3.52.04-6.35-2.73-6.35-6.22,0-3.34,2.82-6.2,6.16-6.24,3.5-.04,6.29,2.74,6.29,6.26Z"/>
      <path class="cls-1" d="M223.54,229.53c.02,3.57-2.7,6.29-6.24,6.26-3.42-.03-6.16-2.75-6.2-6.16-.04-3.34,2.74-6.22,6.09-6.3,3.49-.08,6.33,2.69,6.35,6.2Z"/>
      <path class="cls-1" d="M223.54,378.5c0,3.48-2.63,6.18-6.07,6.22-3.52.04-6.36-2.71-6.37-6.2-.01-3.34,2.8-6.21,6.14-6.26,3.5-.06,6.3,2.72,6.3,6.24Z"/>
      <path class="cls-1" d="M173.88,378.46c.02,3.57-2.7,6.29-6.24,6.26-3.42-.03-6.16-2.76-6.19-6.16-.03-3.34,2.75-6.22,6.1-6.3,3.49-.08,6.33,2.69,6.34,6.2Z"/>
      <path class="cls-1" d="M124.21,378.45c.02,3.57-2.69,6.3-6.24,6.27-3.42-.03-6.16-2.75-6.2-6.15-.04-3.43,2.88-6.36,6.3-6.31,3.43.05,6.12,2.76,6.14,6.19Z"/>
      <path class="cls-1" d="M74.54,378.48c0,3.48-2.62,6.18-6.05,6.23-3.52.05-6.37-2.7-6.39-6.18-.02-3.34,2.78-6.21,6.12-6.27,3.5-.06,6.31,2.71,6.32,6.23Z"/>
      <path class="cls-1" d="M74.54,279.23c0,3.48-2.64,6.17-6.08,6.21-3.52.04-6.36-2.72-6.36-6.21,0-3.34,2.81-6.2,6.15-6.25,3.5-.05,6.3,2.73,6.3,6.25Z"/>
      <path class="cls-1" d="M124.21,279.18c.02,3.57-2.7,6.29-6.25,6.26-3.42-.03-6.16-2.76-6.19-6.16-.03-3.34,2.75-6.22,6.1-6.3,3.49-.08,6.33,2.69,6.34,6.2Z"/>
      <path class="cls-1" d="M173.88,279.25c-.01,3.47-2.66,6.15-6.11,6.18-3.52.03-6.35-2.76-6.34-6.24.01-3.34,2.84-6.19,6.18-6.22,3.5-.03,6.28,2.75,6.27,6.28Z"/>
      <path class="cls-1" d="M223.54,279.12c.04,3.58-2.65,6.32-6.19,6.32-3.43,0-6.18-2.7-6.25-6.1-.07-3.43,2.83-6.38,6.25-6.36,3.43.02,6.15,2.73,6.19,6.15Z"/>
      <path class="cls-1" d="M223.54,328.77c.03,3.58-2.66,6.32-6.2,6.31-3.43-.01-6.18-2.7-6.24-6.11-.07-3.43,2.84-6.37,6.26-6.35,3.43.03,6.14,2.73,6.18,6.15Z"/>
      <path class="cls-1" d="M173.88,328.83c.01,3.48-2.61,6.19-6.04,6.25-3.53.06-6.37-2.68-6.4-6.17-.03-3.34,2.76-6.22,6.1-6.29,3.49-.08,6.32,2.7,6.34,6.21Z"/>
      <path class="cls-1" d="M124.21,328.9c-.01,3.47-2.66,6.15-6.11,6.18-3.52.03-6.35-2.76-6.34-6.24.01-3.34,2.84-6.19,6.18-6.22,3.5-.03,6.28,2.75,6.27,6.28Z"/>
      <path class="cls-1" d="M74.54,328.88c0,3.47-2.65,6.16-6.09,6.19-3.52.03-6.35-2.74-6.35-6.23,0-3.34,2.83-6.2,6.16-6.23,3.5-.04,6.29,2.74,6.28,6.27Z"/>
      <path class="cls-1" d="M24.88,328.87c0,3.48-2.64,6.17-6.08,6.21-3.52.04-6.36-2.72-6.36-6.21,0-3.34,2.81-6.2,6.15-6.25,3.5-.05,6.3,2.73,6.3,6.25Z"/>
      <path class="cls-1" d="M180.12,285.43c3.54.02,6.27,2.81,6.21,6.33-.06,3.4-2.84,6.13-6.23,6.12-3.49-.01-6.26-2.84-6.21-6.36.05-3.4,2.82-6.11,6.23-6.09Z"/>
      <path class="cls-1" d="M130.38,297.88c-3.5-.04-6.23-2.89-6.16-6.4.07-3.4,2.86-6.08,6.28-6.04,3.53.04,6.24,2.86,6.16,6.38-.08,3.4-2.89,6.1-6.28,6.07Z"/>
      <path class="cls-1" d="M87,291.74c-.05,3.4-2.82,6.13-6.21,6.13-3.49,0-6.27-2.82-6.22-6.34.04-3.41,2.8-6.12,6.21-6.11,3.54.01,6.28,2.79,6.22,6.31Z"/>
      <path class="cls-1" d="M80.75,347.52c-3.5-.02-6.25-2.86-6.19-6.37.06-3.4,2.83-6.1,6.25-6.07,3.53.03,6.26,2.82,6.19,6.35-.07,3.4-2.85,6.12-6.25,6.1Z"/>
      <path class="cls-1" d="M136.66,341.2c.04,3.5-2.76,6.34-6.24,6.32-3.4-.02-6.15-2.74-6.2-6.15-.05-3.41,2.64-6.22,6.03-6.29,3.56-.07,6.37,2.61,6.41,6.12Z"/>
      <path class="cls-1" d="M180.25,335.08c3.52.08,6.21,2.93,6.08,6.46-.13,3.39-2.97,6.07-6.36,5.98-3.5-.09-6.19-2.96-6.07-6.48.11-3.39,2.93-6.04,6.36-5.96Z"/>
      <path class="cls-1" d="M236,242.1c-.05,3.4-2.82,6.14-6.21,6.14-3.49,0-6.27-2.82-6.23-6.34.04-3.41,2.8-6.12,6.21-6.11,3.54.01,6.28,2.79,6.23,6.31Z"/>
      <path class="cls-1" d="M180.11,248.24c-3.49,0-6.26-2.83-6.22-6.35.04-3.41,2.81-6.11,6.22-6.1,3.54.02,6.27,2.8,6.22,6.32-.05,3.4-2.83,6.13-6.22,6.13Z"/>
      <path class="cls-1" d="M136.66,242.09c-.05,3.4-2.81,6.14-6.2,6.14-3.49,0-6.27-2.82-6.23-6.33.04-3.41,2.79-6.12,6.2-6.11,3.54,0,6.28,2.78,6.23,6.3Z"/>
      <path class="cls-1" d="M37.33,391.02c-.05,3.4-2.81,6.14-6.2,6.14-3.49,0-6.27-2.81-6.23-6.33.04-3.41,2.79-6.12,6.2-6.12,3.54,0,6.28,2.78,6.23,6.3Z"/>
      <path class="cls-1" d="M87,391.01c-.04,3.4-2.81,6.14-6.2,6.15-3.49,0-6.27-2.81-6.24-6.32.03-3.41,2.79-6.13,6.2-6.12,3.54,0,6.28,2.77,6.24,6.3Z"/>
      <path class="cls-1" d="M130.55,384.72c3.53.06,6.22,2.9,6.11,6.42-.11,3.39-2.93,6.09-6.32,6.02-3.49-.06-6.21-2.93-6.11-6.45.09-3.4,2.89-6.06,6.32-6Z"/>
      <path class="cls-1" d="M180.1,397.16c-3.49,0-6.26-2.84-6.21-6.35.05-3.41,2.81-6.11,6.23-6.09,3.54.02,6.27,2.8,6.21,6.33-.06,3.4-2.83,6.13-6.23,6.12Z"/>
      <path class="cls-1" d="M279.41,186.15c3.54,0,6.29,2.77,6.25,6.29-.04,3.4-2.8,6.14-6.19,6.16-3.49.01-6.28-2.8-6.25-6.32.03-3.41,2.78-6.13,6.19-6.13Z"/>
      <path class="cls-1" d="M229.9,186.15c3.52.07,6.22,2.91,6.1,6.44-.11,3.39-2.95,6.08-6.34,6.01-3.5-.08-6.2-2.94-6.09-6.46.1-3.4,2.91-6.05,6.34-5.98Z"/>
      <path class="cls-1" d="M186.33,192.44c-.04,3.4-2.8,6.14-6.19,6.15-3.49,0-6.28-2.81-6.24-6.32.03-3.41,2.79-6.13,6.2-6.12,3.54,0,6.29,2.77,6.24,6.29Z"/>
      <path class="cls-1" d="M136.66,192.35c0,3.41-2.71,6.18-6.11,6.24-3.48.06-6.32-2.73-6.33-6.23-.01-3.41,2.71-6.18,6.11-6.21,3.55-.04,6.33,2.69,6.33,6.2Z"/>
      <path class="cls-1" d="M31.13,434.36c3.54.02,6.27,2.81,6.2,6.33-.06,3.4-2.84,6.12-6.23,6.11-3.5-.01-6.26-2.84-6.2-6.36.05-3.4,2.82-6.11,6.23-6.08Z"/>
      <path class="cls-1" d="M87,440.59c-.01,3.4-2.74,6.17-6.13,6.21-3.49.05-6.31-2.75-6.31-6.26,0-3.41,2.73-6.16,6.13-6.19,3.55-.02,6.32,2.71,6.31,6.23Z"/>
      <path class="cls-1" d="M80.82,86.87c3.53.04,6.25,2.84,6.17,6.36-.08,3.4-2.87,6.11-6.26,6.08-3.5-.03-6.24-2.87-6.17-6.39.07-3.4,2.85-6.09,6.26-6.05Z"/>
      <path class="cls-1" d="M130.57,86.87c3.52.07,6.22,2.91,6.1,6.44-.11,3.39-2.95,6.08-6.34,6-3.5-.08-6.2-2.94-6.09-6.46.1-3.4,2.91-6.05,6.34-5.98Z"/>
      <path class="cls-1" d="M186.33,93.03c.02,3.41-2.67,6.2-6.06,6.28-3.48.09-6.35-2.7-6.38-6.19-.03-3.41,2.68-6.2,6.07-6.26,3.56-.06,6.35,2.64,6.37,6.16Z"/>
      <path class="cls-1" d="M229.89,86.87c3.52.07,6.22,2.91,6.1,6.43-.11,3.39-2.95,6.08-6.33,6.01-3.5-.07-6.2-2.94-6.1-6.46.1-3.4,2.91-6.05,6.33-5.98Z"/>
      <path class="cls-1" d="M279.43,86.87c3.54,0,6.28,2.78,6.23,6.3-.05,3.4-2.81,6.14-6.2,6.14-3.49,0-6.27-2.81-6.23-6.33.04-3.41,2.79-6.12,6.2-6.12Z"/>
      <path class="cls-1" d="M378.9,136.51c3.52.07,6.22,2.91,6.1,6.44-.11,3.39-2.95,6.08-6.34,6.01-3.5-.08-6.2-2.94-6.09-6.46.1-3.4,2.91-6.05,6.34-5.98Z"/>
      <path class="cls-1" d="M329.11,148.95c-3.49,0-6.26-2.83-6.22-6.35.04-3.41,2.81-6.11,6.22-6.1,3.54.02,6.27,2.8,6.22,6.32-.05,3.4-2.83,6.13-6.22,6.12Z"/>
      <path class="cls-1" d="M285.66,142.82c-.05,3.4-2.82,6.13-6.21,6.13-3.49,0-6.27-2.82-6.22-6.34.04-3.41,2.8-6.12,6.21-6.11,3.54.01,6.28,2.79,6.22,6.31Z"/>
      <path class="cls-1" d="M235.99,142.65c.04,3.49-2.78,6.33-6.26,6.3-3.4-.03-6.14-2.76-6.19-6.17-.04-3.41,2.66-6.21,6.05-6.28,3.56-.07,6.36,2.62,6.4,6.14Z"/>
      <path class="cls-1" d="M180.12,148.95c-3.49,0-6.27-2.82-6.23-6.33.04-3.41,2.8-6.12,6.21-6.11,3.54.01,6.28,2.78,6.23,6.31-.05,3.4-2.81,6.14-6.21,6.14Z"/>
      <path class="cls-1" d="M130.48,148.95c-3.49.02-6.28-2.79-6.26-6.3.02-3.41,2.77-6.14,6.18-6.14,3.54,0,6.29,2.76,6.26,6.28-.03,3.4-2.79,6.15-6.18,6.17Z"/>
      <path class="cls-1" d="M80.89,136.51c3.52.07,6.22,2.91,6.1,6.43-.11,3.39-2.94,6.08-6.33,6.01-3.5-.07-6.2-2.94-6.1-6.46.1-3.4,2.9-6.05,6.33-5.99Z"/>
      <path class="cls-1" d="M31.08,484c3.54,0,6.29,2.77,6.25,6.29-.04,3.4-2.8,6.14-6.19,6.16-3.49.01-6.28-2.8-6.25-6.32.03-3.41,2.78-6.13,6.19-6.13Z"/>
      <path class="cls-1" d="M31.2,37.23c3.53.06,6.23,2.88,6.13,6.41-.1,3.39-2.92,6.09-6.31,6.04-3.5-.06-6.21-2.91-6.12-6.43.09-3.4,2.88-6.07,6.31-6.01Z"/>
      <path class="cls-1" d="M62.09,490.42c-.06,3.42-2.84,6.09-6.25,6.03-3.37-.06-6.15-2.87-6.17-6.23-.02-3.43,2.9-6.27,6.37-6.21,3.56.06,6.12,2.77,6.05,6.42Z"/>
      <path class="cls-1" d="M62.09,440.48c.03,3.58-2.67,6.34-6.17,6.32-3.37-.02-6.17-2.77-6.26-6.15-.09-3.4,2.82-6.32,6.29-6.3,3.48.02,6.11,2.64,6.14,6.12Z"/>
      <path class="cls-1" d="M211.09,390.98c-.02,3.46-2.69,6.16-6.1,6.18-3.45.02-6.35-2.87-6.32-6.29.03-3.36,2.84-6.14,6.22-6.15,3.58-.01,6.22,2.66,6.2,6.27Z"/>
      <path class="cls-1" d="M161.42,390.93c0,3.47-2.63,6.18-6.05,6.23-3.45.05-6.37-2.8-6.38-6.24-.01-3.35,2.8-6.17,6.17-6.2,3.58-.04,6.26,2.62,6.26,6.22Z"/>
      <path class="cls-1" d="M111.76,390.97c-.01,3.46-2.67,6.16-6.09,6.19-3.45.03-6.36-2.85-6.34-6.28.02-3.36,2.83-6.15,6.21-6.17,3.58-.02,6.23,2.65,6.22,6.25Z"/>
      <path class="cls-1" d="M62.09,390.92c0,3.48-2.62,6.19-6.04,6.24-3.45.06-6.37-2.79-6.39-6.23-.02-3.34,2.79-6.18,6.16-6.22,3.58-.04,6.27,2.61,6.27,6.2Z"/>
      <path class="cls-1" d="M211.09,341.19c.03,3.58-2.67,6.34-6.17,6.32-3.37-.02-6.17-2.77-6.26-6.15-.09-3.4,2.82-6.32,6.29-6.3,3.48.02,6.11,2.64,6.14,6.12Z"/>
      <path class="cls-1" d="M161.42,341.33c-.01,3.46-2.68,6.16-6.1,6.19-3.45.03-6.36-2.86-6.33-6.29.02-3.36,2.83-6.15,6.21-6.16,3.58-.01,6.23,2.66,6.21,6.26Z"/>
      <path class="cls-1" d="M111.76,341.34c-.02,3.46-2.69,6.16-6.11,6.17-3.45.02-6.35-2.87-6.32-6.3.03-3.36,2.84-6.14,6.22-6.15,3.58,0,6.22,2.66,6.2,6.27Z"/>
      <path class="cls-1" d="M62.09,341.39c-.03,3.45-2.73,6.14-6.15,6.13-3.46,0-6.34-2.93-6.27-6.34.07-3.38,2.88-6.11,6.27-6.1,3.57.01,6.19,2.7,6.16,6.32Z"/>
      <path class="cls-1" d="M62.09,142.77c-.01,3.46-2.68,6.16-6.1,6.18-3.45.02-6.36-2.86-6.33-6.29.03-3.36,2.83-6.14,6.21-6.16,3.58-.01,6.23,2.66,6.21,6.26Z"/>
      <path class="cls-1" d="M111.76,142.63c.03,3.57-2.68,6.34-6.18,6.32-3.37-.02-6.17-2.78-6.25-6.15-.08-3.41,2.83-6.31,6.3-6.29,3.48.02,6.1,2.64,6.13,6.13Z"/>
      <path class="cls-1" d="M161.42,142.77c-.02,3.46-2.68,6.16-6.1,6.18-3.45.02-6.35-2.86-6.32-6.29.03-3.36,2.84-6.14,6.22-6.15,3.58-.01,6.22,2.66,6.21,6.27Z"/>
      <path class="cls-1" d="M211.09,142.63c.03,3.58-2.68,6.34-6.18,6.32-3.37-.02-6.17-2.77-6.25-6.15-.08-3.41,2.83-6.31,6.3-6.29,3.48.02,6.11,2.64,6.13,6.12Z"/>
      <path class="cls-1" d="M260.76,142.71c0,3.48-2.62,6.19-6.04,6.24-3.45.06-6.37-2.79-6.39-6.23-.02-3.34,2.79-6.18,6.16-6.22,3.58-.04,6.27,2.61,6.27,6.2Z"/>
      <path class="cls-1" d="M310.42,142.7c0,3.48-2.6,6.19-6.02,6.26-3.45.07-6.37-2.77-6.41-6.21-.03-3.34,2.78-6.18,6.14-6.23,3.58-.05,6.28,2.6,6.29,6.19Z"/>
      <path class="cls-1" d="M360.09,142.66c.02,3.57-2.7,6.33-6.2,6.29-3.37-.04-6.17-2.81-6.23-6.18-.06-3.33,2.75-6.2,6.11-6.26,3.59-.07,6.3,2.58,6.32,6.15Z"/>
      <path class="cls-1" d="M310.42,93.01c.02,3.57-2.69,6.33-6.19,6.3-3.37-.03-6.17-2.8-6.24-6.17-.07-3.41,2.85-6.3,6.32-6.27,3.48.03,6.09,2.65,6.11,6.14Z"/>
      <path class="cls-1" d="M260.76,93.09c0,3.47-2.64,6.18-6.06,6.22-3.45.04-6.36-2.82-6.37-6.25,0-3.35,2.81-6.16,6.18-6.19,3.58-.03,6.25,2.63,6.25,6.23Z"/>
      <path class="cls-1" d="M211.09,93c.02,3.57-2.68,6.34-6.19,6.31-3.37-.03-6.17-2.79-6.24-6.16-.08-3.41,2.84-6.31,6.31-6.28,3.48.03,6.1,2.65,6.12,6.13Z"/>
      <path class="cls-1" d="M161.42,93.07c0,3.48-2.62,6.19-6.04,6.24-3.45.06-6.37-2.79-6.39-6.23-.02-3.34,2.79-6.18,6.16-6.22,3.58-.04,6.27,2.61,6.27,6.2Z"/>
      <path class="cls-1" d="M62.09,43.53c-.03,3.45-2.72,6.14-6.14,6.14-3.46,0-6.35-2.91-6.29-6.33.06-3.38,2.87-6.12,6.25-6.12,3.57,0,6.2,2.69,6.17,6.3Z"/>
      <path class="cls-1" d="M211.09,291.55c.03,3.58-2.67,6.34-6.17,6.33-3.37-.02-6.17-2.76-6.26-6.14-.09-3.4,2.82-6.32,6.29-6.3,3.48.02,6.11,2.63,6.14,6.12Z"/>
      <path class="cls-1" d="M161.42,291.71c-.02,3.45-2.69,6.15-6.11,6.17-3.45.02-6.35-2.87-6.32-6.3.04-3.37,2.84-6.14,6.23-6.14,3.58,0,6.22,2.67,6.2,6.27Z"/>
      <path class="cls-1" d="M111.76,291.57c.02,3.57-2.69,6.33-6.19,6.3-3.37-.03-6.17-2.8-6.24-6.17-.07-3.41,2.84-6.3,6.32-6.28,3.48.03,6.09,2.65,6.12,6.14Z"/>
      <path class="cls-1" d="M62.09,291.68c-.01,3.46-2.67,6.16-6.09,6.19-3.45.03-6.36-2.85-6.34-6.28.02-3.36,2.83-6.15,6.2-6.17,3.58-.02,6.23,2.65,6.22,6.25Z"/>
      <path class="cls-1" d="M211.09,242.07c-.02,3.45-2.7,6.15-6.12,6.16-3.45.01-6.35-2.88-6.31-6.31.04-3.37,2.85-6.13,6.23-6.14,3.57,0,6.21,2.67,6.19,6.28Z"/>
      <path class="cls-1" d="M161.42,242.06c-.02,3.45-2.69,6.15-6.11,6.17-3.45.02-6.35-2.87-6.32-6.3.04-3.37,2.84-6.14,6.23-6.14,3.58,0,6.22,2.67,6.2,6.27Z"/>
      <path class="cls-1" d="M111.76,242.09c-.03,3.45-2.72,6.14-6.14,6.14-3.46,0-6.35-2.91-6.29-6.33.06-3.38,2.87-6.12,6.25-6.12,3.57,0,6.2,2.69,6.17,6.3Z"/>
      <path class="cls-1" d="M260.76,192.27c.03,3.58-2.67,6.34-6.17,6.33-3.37-.02-6.17-2.76-6.26-6.14-.09-3.4,2.82-6.32,6.29-6.3,3.48.02,6.11,2.64,6.14,6.12Z"/>
      <path class="cls-1" d="M211.09,192.26c.03,3.58-2.67,6.35-6.16,6.33-3.37-.01-6.17-2.76-6.26-6.14-.09-3.4,2.82-6.32,6.28-6.3,3.49.02,6.11,2.63,6.14,6.11Z"/>
      <path class="cls-1" d="M161.42,192.41c-.01,3.46-2.68,6.16-6.1,6.18-3.45.02-6.36-2.86-6.33-6.29.03-3.36,2.83-6.14,6.21-6.16,3.58-.01,6.23,2.66,6.21,6.26Z"/>
      <path class="cls-1" d="M111.76,192.42c-.02,3.45-2.69,6.15-6.11,6.17-3.45.02-6.35-2.87-6.32-6.3.04-3.37,2.84-6.14,6.23-6.14,3.58,0,6.22,2.67,6.2,6.27Z"/>
      <path class="cls-1" d="M62.09,192.45c-.03,3.45-2.72,6.14-6.14,6.14-3.46,0-6.35-2.91-6.29-6.33.06-3.38,2.87-6.12,6.25-6.12,3.57,0,6.2,2.69,6.17,6.3Z"/>
      <path class="cls-1" d="M111.76,93.16c-.03,3.45-2.71,6.14-6.13,6.15-3.46,0-6.35-2.9-6.29-6.32.05-3.37,2.86-6.12,6.25-6.12,3.57,0,6.2,2.68,6.18,6.3Z"/>
      <path class="cls-1" d="M62.09,93.12c-.01,3.46-2.67,6.16-6.09,6.19-3.45.03-6.36-2.85-6.34-6.28.02-3.36,2.83-6.15,6.21-6.17,3.58-.02,6.23,2.65,6.22,6.25Z"/>
      <path class="cls-1" d="M111.76,316.51c-.02,3.54-2.58,6.11-6.09,6.13-3.54.02-6.37-2.76-6.33-6.22.03-3.32,2.91-6.19,6.21-6.21,3.5-.02,6.23,2.75,6.21,6.31Z"/>
      <path class="cls-1" d="M322.88,105.48c0,3.47-2.62,6.15-6.08,6.21-3.5.05-6.35-2.72-6.37-6.2-.01-3.36,2.76-6.16,6.14-6.2,3.57-.04,6.3,2.64,6.3,6.2Z"/>
      <path class="cls-1" d="M304.38,173.71c-3.56.04-6.37-2.69-6.38-6.17,0-3.31,2.84-6.21,6.16-6.26,3.4-.06,6.2,2.64,6.27,6.04.07,3.69-2.46,6.36-6.04,6.39Z"/>
      <path class="cls-1" d="M62.09,117.92c-.01,3.54-2.56,6.12-6.07,6.15-3.55.02-6.37-2.73-6.36-6.2.01-3.31,2.88-6.2,6.19-6.24,3.5-.04,6.25,2.74,6.24,6.29Z"/>
      <path class="cls-1" d="M105.55,124.06c-3.44-.03-6.16-2.71-6.21-6.13-.05-3.38,2.96-6.38,6.33-6.31,3.53.07,6.15,2.83,6.1,6.43-.05,3.5-2.68,6.04-6.21,6.01Z"/>
      <path class="cls-1" d="M161.42,117.91c-.01,3.54-2.56,6.13-6.07,6.15-3.55.03-6.37-2.73-6.36-6.2.01-3.31,2.88-6.2,6.19-6.24,3.5-.04,6.25,2.74,6.24,6.29Z"/>
      <path class="cls-1" d="M204.97,124.06c-3.53,0-6.36-2.8-6.3-6.25.06-3.33,2.94-6.19,6.24-6.18,3.51,0,6.21,2.77,6.18,6.34-.03,3.53-2.6,6.09-6.12,6.1Z"/>
      <path class="cls-1" d="M260.76,117.86c0,3.64-2.61,6.24-6.23,6.21-3.44-.03-6.16-2.74-6.2-6.14-.03-3.3,2.81-6.21,6.13-6.29,3.48-.08,6.29,2.69,6.3,6.23Z"/>
      <path class="cls-1" d="M124.21,204.81c-.02,3.47-2.67,6.13-6.12,6.16-3.5.03-6.34-2.77-6.32-6.25.01-3.36,2.8-6.14,6.19-6.16,3.57-.02,6.27,2.68,6.25,6.24Z"/>
      <path class="cls-1" d="M310.42,118.01c-.04,3.51-2.64,6.07-6.16,6.06-3.52,0-6.36-2.85-6.27-6.29.08-3.34,2.99-6.17,6.28-6.14,3.52.03,6.19,2.8,6.15,6.38Z"/>
      <path class="cls-1" d="M173.88,204.73c0,3.56-2.73,6.29-6.26,6.24-3.41-.05-6.15-2.78-6.18-6.17-.03-3.36,2.73-6.18,6.12-6.23,3.57-.06,6.32,2.62,6.33,6.17Z"/>
      <path class="cls-1" d="M223.54,204.83c-.02,3.46-2.69,6.12-6.14,6.14-3.5.02-6.33-2.8-6.3-6.27.03-3.36,2.82-6.13,6.21-6.14,3.57,0,6.26,2.7,6.23,6.26Z"/>
      <path class="cls-1" d="M273.21,204.83c-.02,3.46-2.69,6.13-6.14,6.14-3.5.02-6.33-2.79-6.3-6.27.03-3.36,2.82-6.13,6.21-6.14,3.57,0,6.26,2.69,6.23,6.26Z"/>
      <path class="cls-1" d="M62.09,465.43c-.02,3.54-2.58,6.11-6.09,6.13-3.54.02-6.37-2.76-6.33-6.22.03-3.32,2.91-6.19,6.21-6.21,3.5-.02,6.23,2.75,6.21,6.31Z"/>
      <path class="cls-1" d="M12.43,465.38c0,3.55-2.54,6.14-6.04,6.18C2.83,471.59,0,468.87,0,465.38c0-3.31,2.84-6.21,6.16-6.26,3.49-.06,6.27,2.72,6.27,6.26Z"/>
      <path class="cls-1" d="M161.42,217.13c.01,3.64-2.59,6.25-6.21,6.22-3.44-.03-6.16-2.71-6.21-6.13-.05-3.38,2.96-6.38,6.33-6.31,3.45.07,6.08,2.76,6.1,6.21Z"/>
      <path class="cls-1" d="M211.09,217.14c0,3.64-2.61,6.24-6.23,6.21-3.44-.03-6.16-2.74-6.2-6.14-.03-3.3,2.81-6.21,6.13-6.29,3.48-.08,6.29,2.69,6.3,6.23Z"/>
      <path class="cls-1" d="M260.76,217.1c.02,3.65-2.57,6.27-6.19,6.25-3.45-.02-6.17-2.68-6.24-6.1-.07-3.37,2.93-6.38,6.3-6.33,3.45.05,6.1,2.74,6.12,6.19Z"/>
      <path class="cls-1" d="M74.54,452.99c0,3.47-2.64,6.14-6.1,6.18-3.5.04-6.34-2.75-6.34-6.22,0-3.36,2.78-6.15,6.17-6.18,3.57-.03,6.28,2.66,6.28,6.22Z"/>
      <path class="cls-1" d="M260.76,68.27c-.01,3.54-2.56,6.13-6.07,6.15-3.55.03-6.37-2.73-6.36-6.2.01-3.31,2.88-6.2,6.19-6.24,3.5-.04,6.25,2.74,6.24,6.29Z"/>
      <path class="cls-1" d="M273.21,105.39c.03,3.57-2.67,6.31-6.2,6.3-3.41-.01-6.17-2.72-6.24-6.11-.07-3.44,2.8-6.32,6.27-6.29,3.48.02,6.14,2.66,6.17,6.11Z"/>
      <path class="cls-1" d="M24.88,6.19c0,3.48-2.62,6.16-6.07,6.22-3.5.06-6.35-2.72-6.37-6.19C12.42,2.85,15.19.05,18.57,0c3.57-.05,6.3,2.63,6.31,6.19Z"/>
      <path class="cls-1" d="M223.54,105.43c.02,3.56-2.71,6.3-6.24,6.26-3.41-.04-6.16-2.76-6.2-6.15-.04-3.36,2.71-6.19,6.09-6.25,3.57-.07,6.33,2.6,6.35,6.15Z"/>
      <path class="cls-1" d="M56,74.42c-3.54.02-6.37-2.76-6.33-6.23.03-3.32,2.91-6.19,6.21-6.21,3.5-.02,6.23,2.75,6.21,6.31-.02,3.54-2.58,6.11-6.09,6.12Z"/>
      <path class="cls-1" d="M260.76,167.63c-.03,3.52-2.62,6.08-6.14,6.07-3.53,0-6.36-2.83-6.28-6.27.07-3.33,2.97-6.18,6.26-6.16,3.52.02,6.2,2.79,6.16,6.36Z"/>
      <path class="cls-1" d="M204.85,173.71c-3.43-.04-6.16-2.76-6.18-6.16-.02-3.39,3-6.37,6.36-6.27,3.54.1,6.13,2.86,6.06,6.46-.06,3.49-2.7,6.02-6.24,5.98Z"/>
      <path class="cls-1" d="M161.42,167.51c0,3.63-2.62,6.23-6.24,6.19-3.43-.04-6.16-2.75-6.18-6.16-.02-3.3,2.82-6.21,6.14-6.28,3.49-.07,6.28,2.7,6.28,6.24Z"/>
      <path class="cls-1" d="M111.76,167.58c-.02,3.54-2.58,6.11-6.09,6.13-3.54.02-6.37-2.76-6.33-6.22.03-3.32,2.9-6.19,6.21-6.21,3.5-.02,6.24,2.75,6.22,6.31Z"/>
      <path class="cls-1" d="M56,173.71c-3.54.02-6.37-2.76-6.33-6.23.03-3.32,2.91-6.19,6.21-6.21,3.5-.02,6.23,2.75,6.21,6.31-.02,3.54-2.58,6.11-6.09,6.12Z"/>
      <path class="cls-1" d="M111.76,415.68c.01,3.65-2.58,6.26-6.2,6.23-3.45-.02-6.17-2.7-6.22-6.12-.05-3.38,2.95-6.38,6.32-6.32,3.45.07,6.09,2.75,6.11,6.2Z"/>
      <path class="cls-1" d="M62.09,415.85c-.04,3.51-2.63,6.07-6.16,6.06-3.52,0-6.36-2.85-6.27-6.29.08-3.34,2.98-6.18,6.28-6.15,3.52.03,6.19,2.8,6.15,6.37Z"/>
      <path class="cls-1" d="M124.21,254.46c-.02,3.46-2.68,6.13-6.13,6.15-3.5.02-6.33-2.78-6.31-6.26.02-3.36,2.81-6.14,6.2-6.15,3.57-.02,6.26,2.69,6.24,6.25Z"/>
      <path class="cls-1" d="M173.88,254.49c-.03,3.46-2.7,6.12-6.16,6.13-3.5,0-6.32-2.81-6.28-6.28.04-3.36,2.84-6.12,6.23-6.12,3.57,0,6.25,2.71,6.22,6.28Z"/>
      <path class="cls-1" d="M223.54,254.35c.02,3.56-2.71,6.3-6.24,6.26-3.41-.04-6.16-2.76-6.2-6.15-.04-3.36,2.71-6.19,6.09-6.25,3.57-.07,6.33,2.6,6.35,6.15Z"/>
      <path class="cls-1" d="M173.88,403.29c.01,3.56-2.72,6.29-6.25,6.25-3.41-.04-6.15-2.77-6.19-6.16-.04-3.36,2.72-6.18,6.1-6.24,3.57-.06,6.32,2.61,6.34,6.15Z"/>
      <path class="cls-1" d="M124.21,403.31c0,3.48-2.61,6.16-6.06,6.23-3.5.06-6.36-2.7-6.39-6.18-.03-3.36,2.74-6.17,6.12-6.22,3.57-.05,6.31,2.63,6.32,6.18Z"/>
      <path class="cls-1" d="M74.54,403.25c.03,3.57-2.68,6.31-6.22,6.28-3.42-.02-6.17-2.73-6.23-6.13-.06-3.44,2.81-6.31,6.28-6.28,3.48.03,6.13,2.67,6.16,6.12Z"/>
      <path class="cls-1" d="M173.88,105.43c.02,3.56-2.71,6.29-6.24,6.26-3.41-.04-6.16-2.76-6.2-6.15-.04-3.36,2.72-6.18,6.1-6.25,3.57-.07,6.33,2.6,6.35,6.15Z"/>
      <path class="cls-1" d="M111.76,266.91c-.03,3.52-2.62,6.08-6.14,6.08-3.53,0-6.36-2.83-6.29-6.27.07-3.33,2.96-6.18,6.26-6.16,3.52.02,6.2,2.79,6.17,6.36Z"/>
      <path class="cls-1" d="M161.42,266.84c-.01,3.54-2.56,6.13-6.07,6.15-3.55.03-6.37-2.73-6.36-6.2.01-3.31,2.88-6.2,6.19-6.24,3.5-.04,6.25,2.74,6.24,6.29Z"/>
      <path class="cls-1" d="M211.09,266.93c-.04,3.51-2.63,6.07-6.16,6.06-3.52,0-6.36-2.85-6.27-6.29.08-3.34,2.98-6.18,6.28-6.15,3.52.03,6.19,2.8,6.15,6.37Z"/>
      <path class="cls-1" d="M124.21,105.4c.03,3.57-2.67,6.31-6.21,6.29-3.41-.02-6.17-2.72-6.24-6.12-.07-3.44,2.81-6.31,6.27-6.29,3.48.03,6.14,2.66,6.17,6.11Z"/>
      <path class="cls-1" d="M74.54,105.38c.04,3.57-2.65,6.32-6.19,6.31-3.41,0-6.18-2.7-6.25-6.1-.08-3.44,2.79-6.32,6.26-6.31,3.48.02,6.15,2.65,6.19,6.1Z"/>
      <path class="cls-1" d="M273.21,55.87c-.01,3.47-2.66,6.14-6.11,6.17-3.5.03-6.34-2.76-6.33-6.24,0-3.36,2.79-6.14,6.18-6.17,3.57-.03,6.28,2.67,6.26,6.23Z"/>
      <path class="cls-1" d="M211.09,366.16c-.02,3.53-2.59,6.1-6.1,6.12-3.54.01-6.37-2.77-6.32-6.23.04-3.32,2.92-6.19,6.22-6.2,3.51-.01,6.23,2.76,6.2,6.32Z"/>
      <path class="cls-1" d="M161.42,366.22c-.04,3.51-2.64,6.06-6.17,6.05-3.52-.01-6.35-2.86-6.26-6.3.09-3.34,3-6.17,6.29-6.14,3.52.04,6.18,2.8,6.14,6.38Z"/>
      <path class="cls-1" d="M111.76,366.15c-.02,3.54-2.58,6.11-6.09,6.12-3.54.02-6.37-2.76-6.33-6.22.03-3.32,2.91-6.19,6.21-6.21,3.5-.02,6.23,2.75,6.21,6.31Z"/>
      <path class="cls-1" d="M62.09,366.21c-.04,3.52-2.63,6.07-6.15,6.06-3.52,0-6.36-2.85-6.27-6.29.08-3.34,2.98-6.18,6.28-6.15,3.52.03,6.19,2.79,6.15,6.37Z"/>
      <path class="cls-1" d="M74.54,55.93c-.03,3.46-2.71,6.11-6.17,6.12-3.5,0-6.32-2.83-6.27-6.29.04-3.36,2.85-6.12,6.24-6.11,3.57,0,6.24,2.71,6.21,6.29Z"/>
      <path class="cls-1" d="M223.54,353.75c-.02,3.46-2.69,6.12-6.14,6.14-3.5.02-6.33-2.79-6.3-6.27.03-3.36,2.82-6.13,6.21-6.14,3.57,0,6.26,2.69,6.23,6.26Z"/>
      <path class="cls-1" d="M173.88,353.66c0,3.56-2.73,6.28-6.27,6.23-3.41-.05-6.15-2.79-6.18-6.18-.03-3.36,2.74-6.17,6.12-6.23,3.57-.06,6.31,2.62,6.32,6.17Z"/>
      <path class="cls-1" d="M124.21,353.79c-.04,3.45-2.72,6.11-6.18,6.11-3.5,0-6.32-2.84-6.26-6.3.05-3.37,2.86-6.11,6.25-6.1,3.57.01,6.24,2.72,6.2,6.3Z"/>
      <path class="cls-1" d="M74.54,353.65c.01,3.56-2.72,6.29-6.25,6.25-3.41-.04-6.15-2.77-6.19-6.16-.04-3.36,2.72-6.18,6.1-6.24,3.57-.06,6.32,2.61,6.34,6.15Z"/>
      <path class="cls-1" d="M372.54,155.18c-.02,3.46-2.68,6.13-6.13,6.15-3.5.02-6.33-2.79-6.31-6.26.02-3.36,2.82-6.13,6.2-6.15,3.57-.01,6.26,2.69,6.24,6.26Z"/>
      <path class="cls-1" d="M322.88,155.12c0,3.47-2.62,6.15-6.08,6.21-3.5.05-6.35-2.73-6.37-6.2-.01-3.36,2.76-6.16,6.14-6.2,3.57-.04,6.3,2.64,6.3,6.2Z"/>
      <path class="cls-1" d="M273.21,155.05c.03,3.57-2.68,6.31-6.22,6.28-3.42-.02-6.17-2.73-6.23-6.13-.06-3.44,2.82-6.31,6.28-6.28,3.48.03,6.13,2.67,6.16,6.12Z"/>
      <path class="cls-1" d="M223.54,155.11c0,3.48-2.61,6.16-6.06,6.22-3.5.06-6.36-2.71-6.38-6.19-.02-3.36,2.75-6.17,6.13-6.22,3.57-.05,6.31,2.63,6.31,6.18Z"/>
      <path class="cls-1" d="M173.88,155.12c0,3.47-2.62,6.15-6.08,6.21-3.5.05-6.35-2.73-6.37-6.2-.01-3.36,2.76-6.16,6.14-6.2,3.57-.04,6.3,2.64,6.3,6.2Z"/>
      <path class="cls-1" d="M74.54,303.94c.04,3.57-2.65,6.32-6.19,6.31-3.41,0-6.18-2.7-6.25-6.1-.08-3.44,2.79-6.32,6.26-6.31,3.48.02,6.15,2.65,6.19,6.09Z"/>
      <path class="cls-1" d="M124.21,304.04c0,3.48-2.61,6.16-6.06,6.22-3.5.06-6.36-2.71-6.38-6.19-.02-3.36,2.75-6.17,6.13-6.21,3.57-.05,6.31,2.63,6.31,6.19Z"/>
      <path class="cls-1" d="M173.88,304.08c-.01,3.47-2.65,6.14-6.11,6.17-3.5.04-6.34-2.76-6.33-6.23,0-3.36,2.79-6.15,6.18-6.17,3.57-.03,6.28,2.67,6.27,6.23Z"/>
      <path class="cls-1" d="M223.54,304.15c-.04,3.45-2.72,6.11-6.18,6.11-3.5,0-6.32-2.84-6.27-6.3.05-3.37,2.86-6.11,6.24-6.1,3.57.01,6.24,2.72,6.2,6.3Z"/>
      <path class="cls-1" d="M74.54,155.21c-.03,3.46-2.71,6.11-6.16,6.12-3.5,0-6.32-2.82-6.28-6.29.04-3.36,2.85-6.12,6.23-6.12,3.57,0,6.25,2.71,6.21,6.28Z"/>
      <path class="cls-1" d="M124.21,155.17c-.02,3.47-2.67,6.13-6.12,6.16-3.5.03-6.34-2.77-6.32-6.24.01-3.36,2.8-6.14,6.19-6.16,3.57-.02,6.27,2.68,6.25,6.24Z"/>
      <path class="cls-1" d="M211.09,316.39c.02,3.65-2.57,6.27-6.19,6.25-3.45-.02-6.17-2.68-6.23-6.1-.07-3.38,2.93-6.38,6.3-6.33,3.45.05,6.1,2.74,6.12,6.19Z"/>
      <path class="cls-1" d="M62.09,316.45c0,3.55-2.54,6.14-6.04,6.18-3.56.04-6.37-2.69-6.38-6.17,0-3.31,2.84-6.21,6.16-6.27,3.49-.06,6.27,2.72,6.27,6.26Z"/>
      <path class="cls-1" d="M161.42,316.48c-.01,3.54-2.56,6.13-6.06,6.15-3.55.03-6.37-2.72-6.36-6.19,0-3.31,2.87-6.2,6.18-6.24,3.49-.04,6.25,2.73,6.24,6.28Z"/>
      <path class="cls-1" d="M130.49,322.63c-3.57.01-6.3-2.7-6.27-6.24.03-3.38,2.83-6.19,6.18-6.2,3.47,0,6.31,2.86,6.26,6.32-.04,3.46-2.71,6.1-6.17,6.11Z"/>
      <path class="cls-1" d="M80.8,322.63c-3.57,0-6.29-2.72-6.25-6.26.04-3.38,2.86-6.19,6.2-6.18,3.38.01,6.19,2.76,6.24,6.13.06,3.55-2.64,6.3-6.19,6.31Z"/>
      <path class="cls-1" d="M180.04,322.63c-3.47-.03-6.13-2.69-6.15-6.14-.02-3.47,2.89-6.38,6.29-6.29,3.41.08,6.14,2.85,6.15,6.22,0,3.54-2.73,6.24-6.29,6.21Z"/>
      <path class="cls-1" d="M31.08,322.63c-3.56-.01-6.26-2.77-6.19-6.32.06-3.37,2.93-6.17,6.25-6.12,3.4.05,6.16,2.81,6.19,6.18.03,3.55-2.69,6.27-6.25,6.25Z"/>
      <path class="cls-1" d="M378.82,173.71c-3.57.01-6.3-2.7-6.27-6.24.03-3.38,2.83-6.19,6.18-6.2,3.47,0,6.31,2.86,6.26,6.32-.04,3.46-2.71,6.1-6.17,6.11Z"/>
      <path class="cls-1" d="M80.81,124.06c-3.57,0-6.29-2.71-6.26-6.25.03-3.38,2.85-6.19,6.19-6.18,3.38,0,6.19,2.76,6.25,6.12.06,3.56-2.63,6.31-6.18,6.32Z"/>
      <path class="cls-1" d="M130.52,124.06c-3.58.02-6.31-2.68-6.29-6.22.02-3.38,2.8-6.2,6.15-6.22,3.46-.02,6.32,2.84,6.29,6.3-.03,3.46-2.69,6.12-6.15,6.14Z"/>
      <path class="cls-1" d="M180.15,124.06c-3.57.01-6.3-2.71-6.27-6.24.03-3.38,2.84-6.19,6.18-6.19,3.47,0,6.31,2.86,6.26,6.32-.04,3.46-2.71,6.1-6.17,6.11Z"/>
      <path class="cls-1" d="M229.72,124.06c-3.47-.03-6.14-2.68-6.16-6.13-.02-3.47,2.87-6.38,6.28-6.31,3.41.07,6.15,2.84,6.16,6.21.01,3.55-2.72,6.25-6.28,6.22Z"/>
      <path class="cls-1" d="M279.43,124.06c-3.56,0-6.27-2.75-6.21-6.3.05-3.37,2.9-6.18,6.23-6.14,3.4.04,6.17,2.79,6.21,6.16.04,3.55-2.67,6.28-6.23,6.27Z"/>
      <path class="cls-1" d="M329.17,124.06c-3.57.02-6.3-2.69-6.28-6.23.02-3.38,2.82-6.19,6.17-6.21,3.46-.01,6.31,2.85,6.27,6.31-.04,3.46-2.7,6.11-6.16,6.12Z"/>
      <path class="cls-1" d="M31.17,471.56c-3.57.02-6.3-2.69-6.28-6.23.02-3.38,2.82-6.19,6.17-6.21,3.46-.01,6.31,2.85,6.27,6.31-.04,3.46-2.7,6.11-6.16,6.12Z"/>
      <path class="cls-1" d="M130.37,223.35c-3.47-.03-6.13-2.69-6.15-6.14-.02-3.47,2.89-6.38,6.3-6.29,3.41.09,6.14,2.85,6.14,6.23,0,3.54-2.73,6.24-6.29,6.21Z"/>
      <path class="cls-1" d="M180.22,223.35c-3.59.04-6.33-2.64-6.33-6.17,0-3.39,2.75-6.21,6.11-6.26,3.45-.06,6.34,2.79,6.33,6.25,0,3.46-2.66,6.14-6.11,6.18Z"/>
      <path class="cls-1" d="M229.75,223.35c-3.56-.01-6.26-2.77-6.19-6.32.06-3.37,2.93-6.17,6.25-6.12,3.4.05,6.16,2.81,6.19,6.18.03,3.55-2.69,6.27-6.25,6.25Z"/>
      <path class="cls-1" d="M279.38,74.42c-3.47-.03-6.14-2.68-6.16-6.13-.02-3.47,2.87-6.38,6.28-6.31,3.41.07,6.15,2.84,6.16,6.21.01,3.55-2.72,6.25-6.28,6.22Z"/>
      <path class="cls-1" d="M80.73,74.42c-3.47-.02-6.14-2.67-6.17-6.12-.03-3.47,2.86-6.38,6.27-6.31,3.41.07,6.15,2.83,6.17,6.2.02,3.55-2.71,6.25-6.27,6.23Z"/>
      <path class="cls-1" d="M279.37,173.71c-3.47-.03-6.13-2.69-6.15-6.14-.02-3.47,2.89-6.38,6.29-6.29,3.41.08,6.14,2.85,6.15,6.22,0,3.54-2.72,6.24-6.29,6.21Z"/>
      <path class="cls-1" d="M229.73,173.71c-3.47-.02-6.14-2.67-6.17-6.12-.03-3.47,2.86-6.38,6.27-6.31,3.41.07,6.15,2.83,6.17,6.2.02,3.55-2.71,6.25-6.27,6.23Z"/>
      <path class="cls-1" d="M180.06,173.71c-3.47-.02-6.14-2.67-6.17-6.12-.03-3.47,2.87-6.38,6.28-6.31,3.41.07,6.15,2.83,6.16,6.21.01,3.55-2.71,6.25-6.27,6.23Z"/>
      <path class="cls-1" d="M130.51,173.71c-3.57.02-6.31-2.69-6.29-6.22.02-3.38,2.81-6.19,6.16-6.21,3.46-.02,6.32,2.84,6.28,6.3-.03,3.46-2.7,6.11-6.15,6.13Z"/>
      <path class="cls-1" d="M80.83,173.71c-3.57.02-6.3-2.7-6.27-6.23.03-3.38,2.82-6.19,6.17-6.2,3.47-.01,6.31,2.86,6.27,6.32-.04,3.46-2.7,6.1-6.17,6.12Z"/>
      <path class="cls-1" d="M80.73,421.91c-3.47-.02-6.14-2.67-6.17-6.12-.03-3.47,2.86-6.38,6.27-6.31,3.41.07,6.15,2.83,6.16,6.21.02,3.55-2.71,6.25-6.27,6.23Z"/>
      <path class="cls-1" d="M31.15,421.91c-3.57,0-6.29-2.71-6.26-6.25.03-3.38,2.85-6.19,6.19-6.18,3.38,0,6.19,2.76,6.25,6.12.06,3.56-2.63,6.31-6.18,6.32Z"/>
      <path class="cls-1" d="M80.83,372.27c-3.57.02-6.3-2.7-6.28-6.23.02-3.38,2.82-6.19,6.17-6.2,3.46-.01,6.31,2.85,6.27,6.31-.04,3.46-2.7,6.11-6.16,6.12Z"/>
      <path class="cls-1" d="M130.43,372.27c-3.56,0-6.27-2.76-6.21-6.3.06-3.37,2.91-6.18,6.23-6.14,3.4.04,6.17,2.79,6.21,6.16.04,3.55-2.68,6.28-6.23,6.27Z"/>
      <path class="cls-1" d="M180.22,372.27c-3.59.04-6.33-2.64-6.33-6.17,0-3.39,2.75-6.21,6.11-6.26,3.45-.06,6.34,2.79,6.33,6.25,0,3.46-2.66,6.14-6.11,6.18Z"/>
      <path class="cls-1" d="M80.73,272.99c-3.47-.02-6.14-2.67-6.17-6.12-.03-3.47,2.86-6.38,6.27-6.31,3.41.07,6.15,2.83,6.17,6.2.02,3.55-2.71,6.25-6.27,6.23Z"/>
      <path class="cls-1" d="M130.4,272.99c-3.47-.02-6.15-2.66-6.18-6.11-.03-3.47,2.85-6.39,6.26-6.32,3.41.06,6.16,2.82,6.18,6.19.02,3.55-2.7,6.26-6.26,6.24Z"/>
      <path class="cls-1" d="M180.02,272.99c-3.46-.04-6.12-2.71-6.13-6.16,0-3.47,2.91-6.37,6.31-6.28,3.42.1,6.13,2.86,6.13,6.24,0,3.54-2.74,6.23-6.3,6.2Z"/>
      <path class="cls-1" d="M229.78,272.99c-3.56,0-6.28-2.74-6.23-6.28.05-3.37,2.88-6.18,6.22-6.16,3.39.03,6.18,2.78,6.22,6.15.05,3.55-2.66,6.29-6.21,6.29Z"/>
      <path class="cls-1" d="M31.2,24.78c-3.58.03-6.32-2.66-6.31-6.2,0-3.38,2.78-6.2,6.13-6.24,3.45-.04,6.33,2.82,6.31,6.28-.02,3.46-2.68,6.13-6.13,6.16Z"/>
      <path class="cls-1" d="M198.69,378.52c0,3.58-2.72,6.26-6.28,6.2-3.42-.05-6.1-2.79-6.1-6.22,0-3.39,2.75-6.2,6.11-6.24,3.51-.04,6.28,2.72,6.27,6.26Z"/>
      <path class="cls-1" d="M347.69,130.27c0,3.59-2.68,6.28-6.24,6.24-3.43-.04-6.11-2.74-6.14-6.18-.02-3.39,2.7-6.22,6.07-6.28,3.5-.07,6.3,2.69,6.31,6.22Z"/>
      <path class="cls-1" d="M149.02,179.87c.03,3.6-2.64,6.3-6.2,6.28-3.44-.02-6.13-2.7-6.17-6.14-.04-3.48,2.81-6.36,6.24-6.32,3.43.04,6.11,2.73,6.13,6.18Z"/>
      <path class="cls-1" d="M99.36,179.97c-.02,3.58-2.73,6.25-6.3,6.18-3.41-.06-6.09-2.81-6.08-6.24,0-3.39,2.77-6.19,6.13-6.22,3.51-.03,6.26,2.74,6.25,6.28Z"/>
      <path class="cls-1" d="M149.02,378.43c.03,3.6-2.64,6.31-6.19,6.29-3.44-.02-6.13-2.69-6.18-6.13-.05-3.48,2.8-6.37,6.23-6.33,3.43.04,6.11,2.73,6.14,6.17Z"/>
      <path class="cls-1" d="M298.02,130.25c.02,3.59-2.66,6.29-6.22,6.27-3.43-.03-6.12-2.71-6.16-6.15-.04-3.48,2.82-6.36,6.26-6.31,3.44.05,6.1,2.75,6.12,6.19Z"/>
      <path class="cls-1" d="M99.36,378.42c.03,3.6-2.63,6.31-6.18,6.3-3.44-.01-6.14-2.67-6.19-6.12-.06-3.48,2.78-6.37,6.22-6.34,3.43.03,6.12,2.72,6.15,6.16Z"/>
      <path class="cls-1" d="M49.69,378.39c.05,3.61-2.6,6.33-6.15,6.33-3.44,0-6.15-2.65-6.22-6.09-.07-3.48,2.75-6.38,6.19-6.37,3.43.01,6.14,2.69,6.18,6.13Z"/>
      <path class="cls-1" d="M248.35,130.22c.03,3.6-2.64,6.31-6.19,6.29-3.44-.02-6.13-2.68-6.18-6.13-.05-3.48,2.79-6.37,6.23-6.33,3.43.03,6.11,2.73,6.14,6.17Z"/>
      <path class="cls-1" d="M198.69,130.22c.03,3.6-2.64,6.31-6.19,6.29-3.44-.02-6.13-2.68-6.18-6.13-.05-3.48,2.79-6.37,6.23-6.33,3.43.03,6.11,2.73,6.14,6.17Z"/>
      <path class="cls-1" d="M198.69,179.86c.03,3.6-2.64,6.31-6.19,6.29-3.44-.02-6.13-2.69-6.18-6.13-.05-3.48,2.79-6.37,6.23-6.33,3.43.03,6.11,2.73,6.14,6.17Z"/>
      <path class="cls-1" d="M149.02,130.38c-.04,3.49-2.67,6.13-6.13,6.13-3.53,0-6.28-2.76-6.24-6.28.03-3.39,2.82-6.17,6.17-6.18,3.51,0,6.24,2.78,6.2,6.33Z"/>
      <path class="cls-1" d="M99.36,130.3c0,3.59-2.71,6.26-6.27,6.21-3.42-.05-6.1-2.77-6.11-6.21,0-3.39,2.74-6.2,6.1-6.25,3.5-.05,6.28,2.71,6.28,6.25Z"/>
      <path class="cls-1" d="M99.36,279.22c0,3.59-2.71,6.26-6.27,6.21-3.42-.05-6.1-2.77-6.11-6.21,0-3.39,2.74-6.2,6.1-6.25,3.5-.05,6.28,2.71,6.28,6.25Z"/>
      <path class="cls-1" d="M248.35,179.83c.04,3.6-2.61,6.33-6.16,6.32-3.44,0-6.15-2.65-6.21-6.1-.07-3.48,2.76-6.38,6.19-6.36,3.43.01,6.13,2.7,6.17,6.14Z"/>
      <path class="cls-1" d="M298.02,180.07c-.06,3.48-2.72,6.09-6.19,6.08-3.52-.01-6.25-2.81-6.18-6.34.06-3.39,2.87-6.15,6.22-6.12,3.52.03,6.21,2.83,6.15,6.38Z"/>
      <path class="cls-1" d="M149.02,279.11c.05,3.61-2.6,6.33-6.15,6.33-3.44,0-6.15-2.65-6.22-6.09-.07-3.48,2.75-6.38,6.19-6.37,3.43.01,6.14,2.69,6.18,6.13Z"/>
      <path class="cls-1" d="M198.69,279.3c-.04,3.49-2.67,6.13-6.13,6.13-3.53,0-6.28-2.76-6.24-6.28.03-3.39,2.82-6.17,6.17-6.18,3.51,0,6.24,2.78,6.2,6.33Z"/>
      <path class="cls-1" d="M298.02,80.72c-.03,3.49-2.66,6.13-6.12,6.15-3.53.01-6.29-2.75-6.26-6.27.03-3.39,2.8-6.18,6.16-6.19,3.51-.01,6.24,2.77,6.21,6.31Z"/>
      <path class="cls-1" d="M248.35,80.69c-.02,3.58-2.73,6.25-6.3,6.18-3.41-.06-6.09-2.81-6.08-6.24,0-3.39,2.77-6.19,6.13-6.22,3.51-.03,6.26,2.74,6.25,6.28Z"/>
      <path class="cls-1" d="M49.69,328.93c-.03,3.49-2.66,6.13-6.12,6.15-3.53.01-6.28-2.75-6.26-6.27.03-3.39,2.8-6.18,6.16-6.19,3.51,0,6.24,2.77,6.21,6.31Z"/>
      <path class="cls-1" d="M99.35,80.95c-.13,3.45-2.86,6.01-6.34,5.92-3.5-.08-6.16-2.95-6.01-6.49.14-3.39,3.02-6.09,6.37-5.96,3.53.13,6.12,2.96,5.99,6.54Z"/>
      <path class="cls-1" d="M49.69,80.69c-.02,3.58-2.73,6.25-6.3,6.18-3.41-.06-6.09-2.81-6.08-6.24,0-3.39,2.77-6.19,6.13-6.22,3.51-.03,6.27,2.74,6.25,6.28Z"/>
      <path class="cls-1" d="M99.36,328.78c.03,3.6-2.63,6.31-6.18,6.3-3.44-.01-6.14-2.68-6.19-6.12-.05-3.48,2.78-6.37,6.22-6.34,3.43.03,6.12,2.72,6.15,6.16Z"/>
      <path class="cls-1" d="M149.02,328.81c.02,3.59-2.66,6.29-6.22,6.26-3.43-.03-6.12-2.71-6.16-6.15-.04-3.48,2.82-6.36,6.26-6.31,3.44.05,6.1,2.75,6.12,6.19Z"/>
      <path class="cls-1" d="M198.69,328.8c.03,3.6-2.65,6.3-6.2,6.28-3.44-.02-6.13-2.7-6.17-6.14-.04-3.48,2.81-6.36,6.24-6.32,3.43.04,6.11,2.74,6.13,6.18Z"/>
      <path class="cls-1" d="M49.69,428.06c.03,3.6-2.63,6.31-6.18,6.3-3.44-.01-6.14-2.68-6.19-6.12-.05-3.48,2.78-6.37,6.22-6.34,3.43.03,6.12,2.72,6.15,6.16Z"/>
      <path class="cls-1" d="M99.36,428.08c.02,3.6-2.65,6.3-6.2,6.28-3.44-.02-6.13-2.7-6.17-6.14-.04-3.48,2.81-6.36,6.24-6.32,3.43.04,6.11,2.74,6.13,6.18Z"/>
      <path class="cls-1" d="M49.69,477.73c.02,3.59-2.65,6.3-6.21,6.27-3.43-.02-6.13-2.7-6.17-6.14-.04-3.48,2.81-6.36,6.25-6.32,3.43.05,6.1,2.74,6.13,6.19Z"/>
      <path class="cls-1" d="M248.35,229.72c-.06,3.48-2.72,6.09-6.19,6.08-3.52-.02-6.25-2.81-6.18-6.34.06-3.39,2.87-6.15,6.22-6.12,3.52.03,6.21,2.83,6.15,6.38Z"/>
      <path class="cls-1" d="M198.69,229.51c.03,3.6-2.64,6.3-6.2,6.28-3.44-.02-6.13-2.69-6.18-6.13-.05-3.48,2.8-6.36,6.24-6.33,3.43.04,6.11,2.73,6.14,6.18Z"/>
      <path class="cls-1" d="M149.02,229.47c.04,3.6-2.61,6.33-6.16,6.32-3.44,0-6.15-2.65-6.21-6.1-.07-3.48,2.76-6.38,6.19-6.36,3.43.01,6.13,2.7,6.17,6.14Z"/>
      <path class="cls-1" d="M49.69,30.95c.03,3.6-2.65,6.3-6.2,6.28-3.44-.02-6.13-2.7-6.17-6.14-.04-3.48,2.81-6.36,6.24-6.32,3.43.04,6.11,2.74,6.13,6.18Z"/>
      <path class="cls-1" d="M49.69,452.89c.03,3.6-2.63,6.31-6.19,6.29-3.44-.02-6.13-2.68-6.2-6.12-.06-3.41,2.62-6.2,6.02-6.29,3.58-.09,6.33,2.55,6.36,6.11Z"/>
      <path class="cls-1" d="M198.69,155.03c.04,3.61-2.61,6.31-6.17,6.3-3.44,0-6.14-2.66-6.21-6.1-.07-3.41,2.6-6.21,6.01-6.3,3.58-.09,6.34,2.54,6.38,6.1Z"/>
      <path class="cls-1" d="M248.35,155.19c-.03,3.5-2.64,6.12-6.12,6.14-3.52.02-6.29-2.75-6.26-6.27.02-3.42,2.75-6.13,6.17-6.14,3.58,0,6.24,2.67,6.21,6.26Z"/>
      <path class="cls-1" d="M49.69,304.1c-.02,3.5-2.63,6.13-6.11,6.15-3.52.03-6.29-2.74-6.27-6.26.02-3.42,2.74-6.13,6.16-6.15,3.58-.01,6.25,2.67,6.22,6.25Z"/>
      <path class="cls-1" d="M298.02,155.2c-.04,3.5-2.66,6.12-6.14,6.13-3.52.01-6.28-2.76-6.24-6.28.03-3.42,2.77-6.12,6.18-6.12,3.58,0,6.23,2.69,6.2,6.28Z"/>
      <path class="cls-1" d="M99.36,304.1c-.02,3.5-2.63,6.13-6.1,6.16-3.52.03-6.29-2.73-6.28-6.25.01-3.42,2.74-6.14,6.15-6.15,3.58-.02,6.25,2.66,6.23,6.25Z"/>
      <path class="cls-1" d="M347.69,155.14c0,3.51-2.59,6.15-6.07,6.19-3.53.05-6.3-2.69-6.31-6.22,0-3.41,2.7-6.15,6.12-6.19,3.58-.03,6.27,2.63,6.26,6.21Z"/>
      <path class="cls-1" d="M149.02,303.98c.03,3.6-2.65,6.3-6.21,6.27-3.44-.03-6.12-2.7-6.17-6.14-.05-3.41,2.63-6.19,6.04-6.26,3.58-.07,6.31,2.57,6.34,6.13Z"/>
      <path class="cls-1" d="M248.35,204.82c-.02,3.5-2.63,6.13-6.11,6.15-3.52.03-6.29-2.73-6.27-6.26.02-3.42,2.74-6.13,6.16-6.15,3.58-.01,6.25,2.66,6.22,6.25Z"/>
      <path class="cls-1" d="M298.02,105.38c.04,3.61-2.6,6.32-6.17,6.31-3.44,0-6.14-2.66-6.21-6.1-.07-3.41,2.6-6.21,6-6.3,3.58-.1,6.34,2.54,6.38,6.09Z"/>
      <path class="cls-1" d="M198.69,204.81c-.02,3.5-2.62,6.13-6.1,6.17-3.52.03-6.29-2.72-6.28-6.24.01-3.41,2.73-6.14,6.15-6.16,3.58-.02,6.25,2.65,6.24,6.24Z"/>
      <path class="cls-1" d="M149.02,204.86c-.04,3.5-2.67,6.11-6.15,6.12-3.52,0-6.27-2.77-6.23-6.29.04-3.42,2.78-6.12,6.19-6.11,3.58,0,6.23,2.7,6.19,6.29Z"/>
      <path class="cls-1" d="M248.35,105.47c0,3.51-2.58,6.16-6.05,6.22-3.52.06-6.31-2.67-6.33-6.19-.02-3.41,2.68-6.16,6.1-6.21,3.58-.05,6.28,2.61,6.29,6.19Z"/>
      <path class="cls-1" d="M49.69,353.73c-.02,3.5-2.62,6.13-6.1,6.16-3.52.03-6.29-2.72-6.28-6.25.01-3.41,2.73-6.14,6.15-6.16,3.58-.02,6.25,2.66,6.23,6.24Z"/>
      <path class="cls-1" d="M99.36,353.77c-.04,3.5-2.66,6.11-6.14,6.12-3.52,0-6.28-2.77-6.24-6.29.04-3.42,2.77-6.12,6.19-6.12,3.58,0,6.23,2.69,6.19,6.28Z"/>
      <path class="cls-1" d="M149.02,353.62c.03,3.6-2.64,6.3-6.2,6.28-3.44-.03-6.13-2.69-6.18-6.13-.05-3.41,2.63-6.2,6.03-6.27,3.58-.08,6.32,2.56,6.35,6.13Z"/>
      <path class="cls-1" d="M198.69,353.66c.01,3.59-2.69,6.29-6.24,6.24-3.44-.05-6.11-2.73-6.14-6.17-.03-3.41,2.66-6.18,6.07-6.23,3.58-.06,6.3,2.59,6.31,6.17Z"/>
      <path class="cls-1" d="M198.69,303.98c.03,3.6-2.64,6.3-6.2,6.28-3.44-.02-6.13-2.69-6.18-6.13-.05-3.41,2.63-6.2,6.03-6.27,3.58-.08,6.32,2.56,6.35,6.13Z"/>
      <path class="cls-1" d="M49.69,55.88c-.02,3.5-2.62,6.13-6.1,6.16-3.52.03-6.29-2.72-6.28-6.25.01-3.41,2.73-6.14,6.15-6.16,3.58-.02,6.25,2.66,6.23,6.24Z"/>
      <path class="cls-1" d="M99.36,254.43c-.01,3.51-2.61,6.14-6.08,6.18-3.53.04-6.3-2.7-6.3-6.23,0-3.41,2.72-6.15,6.13-6.17,3.58-.03,6.26,2.64,6.25,6.22Z"/>
      <path class="cls-1" d="M149.02,254.49c-.04,3.5-2.66,6.11-6.14,6.12-3.52,0-6.28-2.76-6.24-6.29.03-3.42,2.77-6.12,6.19-6.12,3.58,0,6.23,2.69,6.19,6.28Z"/>
      <path class="cls-1" d="M198.69,254.33c.03,3.6-2.64,6.3-6.2,6.28-3.44-.02-6.13-2.69-6.18-6.13-.05-3.41,2.63-6.2,6.03-6.27,3.58-.08,6.32,2.56,6.35,6.13Z"/>
      <path class="cls-1" d="M149.02,403.3c.01,3.59-2.69,6.28-6.24,6.24-3.44-.05-6.11-2.73-6.14-6.17-.03-3.41,2.67-6.18,6.08-6.23,3.58-.06,6.3,2.6,6.31,6.17Z"/>
      <path class="cls-1" d="M99.36,403.26c.03,3.6-2.64,6.3-6.2,6.28-3.44-.02-6.13-2.69-6.19-6.13-.06-3.41,2.62-6.2,6.03-6.28,3.58-.08,6.32,2.56,6.35,6.12Z"/>
      <path class="cls-1" d="M49.69,403.29c.02,3.59-2.67,6.29-6.23,6.25-3.44-.04-6.12-2.72-6.16-6.16-.04-3.41,2.65-6.18,6.06-6.25,3.58-.06,6.3,2.58,6.32,6.15Z"/>
      <path class="cls-1" d="M99.36,155.21c-.04,3.5-2.66,6.11-6.14,6.12-3.52,0-6.28-2.77-6.24-6.29.04-3.42,2.77-6.12,6.19-6.11,3.58,0,6.23,2.69,6.19,6.28Z"/>
      <path class="cls-1" d="M149.02,155.06c.02,3.59-2.66,6.3-6.21,6.27-3.44-.03-6.12-2.7-6.17-6.14-.05-3.41,2.64-6.19,6.05-6.26,3.58-.07,6.31,2.57,6.34,6.14Z"/>
      <path class="cls-1" d="M198.69,105.44c.02,3.59-2.67,6.29-6.23,6.25-3.44-.04-6.12-2.72-6.16-6.16-.04-3.41,2.65-6.18,6.06-6.25,3.58-.06,6.3,2.58,6.32,6.15Z"/>
      <path class="cls-1" d="M149.02,105.48c0,3.51-2.58,6.15-6.06,6.2-3.52.05-6.31-2.68-6.32-6.21-.01-3.41,2.69-6.16,6.11-6.2,3.58-.04,6.28,2.62,6.27,6.2Z"/>
      <path class="cls-1" d="M99.36,105.4c.03,3.6-2.62,6.31-6.18,6.29-3.44-.02-6.13-2.67-6.2-6.12-.06-3.41,2.61-6.2,6.02-6.29,3.58-.09,6.33,2.55,6.36,6.11Z"/>
    </g>
  </g>
</svg>